# xmcd
#
# Track frame offsets: 
#        150
#        12261
#        30256
#        47220
#        62397
#        73993
#        87826
#        100780
#        113883
#        124689
#        137273
#        150526
#        164067
#        180954
#        190736
#        205101
#        219085
#        232822
#        246031
#        255947
#        269335
#        282641
#        297880
#        310564
#        321377
#
# Disc length: 4447 seconds
#
# Revision: 0
# Processed by: cddbd v1.5.2PL0 Copyright (c) Steve Scherf et al.
# Submitted via: ExactAudioCopy v0.90b4
#
DISCID=50115d19
DTITLE=Gene Watson - Barrooms and Bedrooms - The Capitol and MCA Years
DYEAR=2016
DGENRE=Country
TTITLE0=Fourteen Carat Mind
TTITLE1=Paper Rosie
TTITLE2=Nothing Sure Looked Good On You
TTITLE3=Love In The Hot Afternoon
TTITLE4=You're Out Doing What I'm Here Doing Without
TTITLE5=Where Love Begins
TTITLE6=You Could Know As Much About A Stranger
TTITLE7=Because You Believed In Me
TTITLE8=Her Body Couldn't Keep You (Off My Mind)
TTITLE9=I Don't Need A Thing At All
TTITLE10=Til You Can Make It On Your Own
TTITLE11=One Sided Conversations
TTITLE12=What She Don't Know Won't Hurt Her
TTITLE13=John's Back In Town
TTITLE14=Down And Out This Way Again
TTITLE15=Missing You Just Started Hittin' Home
TTITLE16=If The Shoe Fits Wear It
TTITLE17=Bedroom Ballad
TTITLE18=Speak Softly (You're Talking To My Heart)
TTITLE19=No One Will Ever Know
TTITLE20=Between This Time And The Next Time
TTITLE21=Maybe I Should Have Been Listening
TTITLE22=Cowboys Don't Get Lucky All The Time
TTITLE23=Pick The Wildwood Flower
TTITLE24=Raisin' Cane In Texas
EXTD=
EXTT0=
EXTT1=
EXTT2=
EXTT3=
EXTT4=
EXTT5=
EXTT6=
EXTT7=
EXTT8=
EXTT9=
EXTT10=
EXTT11=
EXTT12=
EXTT13=
EXTT14=
EXTT15=
EXTT16=
EXTT17=
EXTT18=
EXTT19=
EXTT20=
EXTT21=
EXTT22=
EXTT23=
EXTT24=
PLAYORDER=
